# xmcd
#
# Track frame offsets: 
#        150
#        12458
#        24581
#        37178
#        47365
#        59126
#        75812
#        86511
#        100641
#        121636
#
# Disc length: 1771 seconds
#
# Revision: 10
# Processed by: cddbd v1.5.2PL0 Copyright (c) Steve Scherf et al.
# Submitted via: ExactAudioCopyFreeDBPlugin 1.0
#
DISCID=6d06e90a
DTITLE=Johnny Winter - About Blues (Digitally Remastered)
DYEAR=1969
DGENRE=Blues
TTITLE0=Parchman Farm
TTITLE1=Livin' In The Blues
TTITLE2=Leavin' Blues
TTITLE3=38-32-20-Blues
TTITLE4=Bad News
TTITLE5=Kind Hearted Woman
TTITLE6=Out Of Sight
TTITLE7=Low Down Gal Of Mine
TTITLE8=Goin´ Down Slow
TTITLE9=Avocado Green
EXTD=
EXTT0=
EXTT1=
EXTT2=
EXTT3=
EXTT4=
EXTT5=
EXTT6=
EXTT7=
EXTT8=
EXTT9=
PLAYORDER=
